HIERARCHY
ROOT Hips
{
	OFFSET 0.000000 0.000000 0.000000 
	CHANNELS 6 Xposition Yposition Zposition Yrotation Zrotation Xrotation 
	JOINT Lumbar
	{
		OFFSET 0.000000 0.000000 0.000000 
		CHANNELS 3 Zrotation Xrotation Yrotation
		JOINT Neck
		{
			OFFSET 0.000000 0.445665 0.000000 
			CHANNELS 3 Zrotation Xrotation Yrotation
			End Site
			{
				OFFSET 0.000000 0.227535 0.000000 
			}
		}
		JOINT RightShoulder
		{
			OFFSET 0.019635 0.377685 0.194865 
			CHANNELS 3 Zrotation Xrotation Yrotation
			JOINT RightElbow
			{
				OFFSET 0.000000 -0.243375 0.000000 
				CHANNELS 2 Zrotation Yrotation
				JOINT RightWrist
				{
					OFFSET 0.000000 -0.264825 0.000000 
					CHANNELS 2 Zrotation Xrotation
					End Site
					{
						OFFSET 0.006600 -0.176220 0.000990 
					}
				}
			}
		}
		JOINT LeftShoulder
		{
			OFFSET 0.019635 0.377685 -0.194865 
			CHANNELS 3 Zrotation Xrotation Yrotation
			JOINT LeftElbow
			{
				OFFSET 0.000000 -0.243375 0.000000 
				CHANNELS 2 Zrotation Yrotation
				JOINT LeftWrist
				{
					OFFSET 0.000000 -0.264825 0.000000 
					CHANNELS 2 Zrotation Xrotation
					End Site
					{
						OFFSET 0.006600 -0.176220 -0.000990 
					}
				}
			}
		}
	}
	JOINT RightHip
	{
		OFFSET 0.052140 -0.069960 0.075570 
		CHANNELS 3 Zrotation Xrotation Yrotation
		JOINT RightKnee
		{
			OFFSET 0.000000 -0.402270 0.000000 
			CHANNELS 1 Zrotation
			JOINT RightAnkle
			{
				OFFSET 0.000000 -0.404085 0.000000 
				CHANNELS 3 Zrotation Xrotation Yrotation
				End Site
				{
					OFFSET 0.204105 -0.089430 0.008415 
				}
			}
		}
	}
	JOINT LeftHip
	{
		OFFSET 0.052140 -0.069960 -0.075570 
		CHANNELS 3 Zrotation Xrotation Yrotation
		JOINT LeftKnee
		{
			OFFSET 0.000000 -0.402270 0.000000 
			CHANNELS 1 Zrotation
			JOINT LeftAnkle
			{
				OFFSET 0.000000 -0.404085 0.000000 
				CHANNELS 3 Zrotation Xrotation Yrotation
				End Site
				{
					OFFSET 0.204105 -0.089430 -0.008415 
				}
			}
		}
	}
}
MOTION
Frames: 11
Frame Time: 0.02
0.07946 -0.03686 -0.23291 -192.07787 -30.78508 -7.17066 39.5094 0.80158 5.5661 -37.64845 2.05067 -2.11987 -29.61166 -11.65921 -11.14013 28.7856 81.89798 -0.31276 -8.02157 -21.89342 122.75831 -26.79294 6.00151 -64.0202 -13.17169 -2.98988 34.55317 13.69368 -46.69602 -23.54122 12.9661 25.39161 9.43355 51.40689 1.58658 19.35531 -35.88293 -8.56776 4.04598 4.30619
0.08014 -0.03659 -0.23245 -192.27174 -30.82449 -7.29328 39.60969 0.85688 5.42501 -37.98611 2.2015 -2.11987 -29.98312 -11.12454 -11.84046 29.11008 81.78438 -0.81671 -8.8912 -20.76673 122.71965 -28.03338 6.13039 -62.72824 -13.93023 -2.59617 34.71081 13.69368 -46.69602 -23.69343 12.54428 25.59993 9.58695 51.45062 1.64308 19.33084 -35.70285 -8.5929 4.05473 4.31207
0.08072 -0.03621 -0.23229 -192.51885 -30.91582 -7.45823 39.75993 0.88415 5.33369 -38.30694 2.53277 -2.11987 -29.99809 -10.60726 -12.70846 29.10636 81.71221 -1.26816 -9.52415 -19.61234 122.80553 -29.4264 6.28595 -61.40471 -14.52071 -2.19943 34.95064 13.69368 -46.69602 -23.93554 11.96954 25.88568 9.80247 51.52853 1.70354 19.19037 -35.45463 -8.62956 4.07187 4.32297
0.08136 -0.0359 -0.23197 -192.73781 -30.98062 -7.60015 39.88111 0.92685 5.22457 -38.62878 2.78036 -2.11987 -30.17109 -10.10667 -13.44893 29.25683 81.62171 -1.7275 -10.24325 -18.49841 122.82698 -30.7098 6.42293 -60.15194 -15.17012 -1.82462 35.14674 13.69368 -46.69602 -24.12815 11.47837 26.13179 9.98544 51.58835 1.76238 19.11533 -35.24207 -8.65916 4.0843 4.33099
0.08195 -0.03554 -0.23176 -192.97507 -31.05973 -7.75954 40.0305 0.95708 5.09553 -38.97988 3.04359 -2.11987 -30.36269 -9.50288 -14.41091 29.39487 81.52628 -2.26489 -11.07207 -17.25159 122.8835 -32.13718 6.59147 -58.66718 -15.90855 -1.35713 35.37355 13.69368 -46.69602 -24.3615 10.92441 26.3967 10.18703 51.6612 1.8245 18.99371 -35.01107 -8.6957 4.10009 4.34124
0.08261 -0.03524 -0.23139 -193.18566 -31.12069 -7.89214 40.13267 1.00729 5.01904 -39.2653 3.31432 -2.11987 -30.42935 -9.11828 -14.95114 29.47823 81.45186 -2.62485 -11.61123 -16.28117 122.89597 -33.31052 6.69975 -57.6513 -16.41744 -1.08224 35.55461 13.69368 -46.69602 -24.52973 10.46635 26.64022 10.3642 51.71408 1.87905 18.93866 -34.80171 -8.72076 4.111 4.34815
0.08346 -0.03511 -0.23056 -193.31682 -31.11818 -7.93899 40.0902 1.11665 5.08293 -39.37669 3.55546 -2.11987 -30.24824 -9.33056 -14.26539 29.48133 81.4278 -2.48696 -11.37732 -16.07664 122.7541 -33.74868 6.62534 -57.9943 -16.31252 -1.36461 35.58753 13.69368 -46.69602 -24.49606 10.30899 26.81339 10.46153 51.70477 1.91329 19.09733 -34.66963 -8.71203 4.1068 4.34474
0.08437 -0.03504 -0.22956 -193.41795 -31.09555 -7.95748 39.99884 1.24772 5.19668 -39.42176 3.79785 -2.11987 -29.95148 -9.76337 -13.15259 29.44119 81.42348 -2.17448 -10.86277 -16.1539 122.56389 -33.92829 6.49048 -58.80034 -15.98383 -1.83744 35.57139 13.69368 -46.69602 -24.39315 10.25427 26.96114 10.53164 51.67379 1.93884 19.32534 -34.56133 -8.69137 4.0974 4.33783
0.08523 -0.03494 -0.22863 -193.52779 -31.08212 -7.98961 39.93075 1.37088 5.28271 -39.49506 4.04227 -2.11987 -29.7013 -10.0979 -12.24732 29.42568 81.40886 -1.95365 -10.49387 -16.10726 122.39675 -34.22863 6.38892 -59.35628 -15.76903 -2.20812 35.57817 13.69368 -46.69602 -24.32142 10.15389 27.11542 10.61231 51.65138 1.96693 19.52015 -34.44141 -8.67576 4.09012 4.33246
0.08616 -0.03485 -0.22776 -193.65985 -31.06987 -8.01995 39.85924 1.48486 5.39167 -39.57615 4.2818 -2.11987 -29.46492 -10.42526 -11.28993 29.37768 81.40104 -1.67895 -10.04046 -16.0427 122.2286 -34.52319 6.26368 -60.07546 -15.4974 -2.64453 35.58501 13.69368 -46.69602 -24.25418 10.04351 27.29307 10.70261 51.63495 2.00162 19.7198 -34.32261 -8.6619 4.08404 4.32742
0.08698 -0.03475 -0.2267 -193.73844 -31.05024 -8.04689 39.78351 1.62341 5.46426 -39.62512 4.52988 -2.11987 -29.17574 -10.8192 -10.33911 29.39157 81.3835 -1.47602 -9.69967 -16.08167 122.05037 -34.76272 6.17315 -60.56894 -15.29289 -2.98916 35.57932 13.69368 -46.69602 -24.15988 9.98089 27.41568 10.76579 51.60125 2.0199 19.92524 -34.20799 -8.64166 4.07428 4.32088
